<svg id="그룹_1153" data-name="그룹 1153" xmlns="http://www.w3.org/2000/svg" xmlns:xlink="http://www.w3.org/1999/xlink" width="24" height="24" viewBox="0 0 24 24">
  <defs>
    <style>
      .cls-1 {
        fill: none;
      }

      .cls-2 {
        clip-path: url(#clip-path);
      }
    </style>
    <clipPath id="clip-path">
      <rect id="사각형_301" data-name="사각형 301" class="cls-1" width="24" height="24"/>
    </clipPath>
  </defs>
  <g id="그룹_1153-2" data-name="그룹 1153" class="cls-2">
    <path id="패스_182" data-name="패스 182" d="M18,13.75a4.243,4.243,0,0,0-3.808,2.4L9.9,13.674a4.223,4.223,0,0,0,0-3.348L14.192,7.85A4.22,4.22,0,1,0,13.75,6c0,.121.026.235.036.353L9.07,9.076a4.25,4.25,0,1,0,0,5.848l4.716,2.723c-.01.118-.036.232-.036.353A4.25,4.25,0,1,0,18,13.75m0-10.5A2.75,2.75,0,1,1,15.25,6,2.752,2.752,0,0,1,18,3.25M6,14.75A2.75,2.75,0,1,1,8.75,12,2.752,2.752,0,0,1,6,14.75m12,6A2.75,2.75,0,1,1,20.75,18,2.752,2.752,0,0,1,18,20.75"/>
  </g>
</svg>
