<svg xmlns="http://www.w3.org/2000/svg" xmlns:xlink="http://www.w3.org/1999/xlink" width="27" height="26" viewBox="0 0 27 26">
    <defs>
        <clipPath id="clip-path">
            <rect id="사각형_290" data-name="사각형 290" width="27" height="26" fill="none" stroke="#000" stroke-width="0.5"></rect>
        </clipPath>
    </defs>
    <g id="그룹_1320" data-name="그룹 1320" transform="translate(1.418 0.418)">
        <g id="그룹_1130" data-name="그룹 1130" transform="translate(-1.418 -0.418)">
            <g id="그룹_1129" data-name="그룹 1129" clip-path="url(#clip-path)">
            <path id="패스_160" data-name="패스 160" d="M19,3.44a2.43,2.43,0,0,1,2.426,2.2l1.44,14.4a2.437,2.437,0,0,1-2.426,2.68H5.746a2.437,2.437,0,0,1-2.426-2.68l1.44-14.4a2.43,2.43,0,0,1,2.426-2.2ZM19,2H7.186A3.878,3.878,0,0,0,3.327,5.492l-1.44,14.4a3.878,3.878,0,0,0,3.859,4.263h14.69a3.877,3.877,0,0,0,3.858-4.263l-1.439-14.4A3.878,3.878,0,0,0,19,2" transform="translate(0.32 0.303)" stroke="#000" stroke-width="0.3"></path>
            <path id="패스_161" data-name="패스 161" d="M12.339,9.657A3.493,3.493,0,0,1,8.85,6.168a.72.72,0,1,1,1.44,0,2.049,2.049,0,0,0,4.1,0,.72.72,0,1,1,1.44,0,3.493,3.493,0,0,1-3.489,3.489" transform="translate(1.23 0.674)" stroke="#000" stroke-width="0.3"></path>
            </g>
        </g>
    </g>
</svg>