<svg xmlns="http://www.w3.org/2000/svg" xmlns:xlink="http://www.w3.org/1999/xlink" width="26" height="26" viewBox="0 0 26 26">
    <defs>
        <clipPath id="clip-path">
            <rect id="사각형_362" data-name="사각형 362" width="26" height="26" transform="translate(0 0.27)" fill="none"></rect>
        </clipPath>
    </defs>
    <g id="그룹_1288" data-name="그룹 1288" transform="translate(0 -0.27)">
        <g id="그룹_1288-2" data-name="그룹 1288" clip-path="url(#clip-path)">
            <path id="패스_209" data-name="패스 209" d="M16.562,22.767H8.952a4.943,4.943,0,0,1-4-7.853l.223-.306a9.375,9.375,0,0,1,3.245-2.8c.485-.253,1.2.038,1.906.507a4.4,4.4,0,0,0,4.853,0c.708-.468,1.421-.76,1.906-.507a9.375,9.375,0,0,1,3.245,2.8l.223.306a4.943,4.943,0,0,1-4,7.853" transform="translate(0.378 1.109)" fill="none"></path>
            <path id="패스_210" data-name="패스 210" d="M16.627,23.6H9.018A5.709,5.709,0,0,1,4.4,14.53l.223-.308A10.2,10.2,0,0,1,8.136,11.2c.7-.36,1.577-.184,2.683.547a3.622,3.622,0,0,0,4.008,0c1.1-.732,1.981-.911,2.682-.548a10.2,10.2,0,0,1,3.511,3.023l.223.308a5.71,5.71,0,0,1-4.616,9.07M8.9,12.549a.141.141,0,0,0-.056.009,8.628,8.628,0,0,0-2.979,2.567l-.223.306a4.176,4.176,0,0,0,3.377,6.634h7.61A4.176,4.176,0,0,0,20,15.431l-.223-.306A8.631,8.631,0,0,0,16.8,12.558c-.049-.023-.4-.02-1.129.467a5.16,5.16,0,0,1-5.7,0A2.289,2.289,0,0,0,8.9,12.549" transform="translate(0.313 1.042)"></path>
            <path id="패스_211" data-name="패스 211" d="M12.441,11.685a5.1,5.1,0,1,1,5.1-5.1,5.105,5.105,0,0,1-5.1,5.1m0-8.664a3.566,3.566,0,1,0,3.566,3.565,3.57,3.57,0,0,0-3.566-3.565" transform="translate(0.695 0.141)"></path>
        </g>
    </g>
</svg>