<svg id="그룹_1106" data-name="그룹 1106" xmlns="http://www.w3.org/2000/svg" xmlns:xlink="http://www.w3.org/1999/xlink" width="26" height="26" viewBox="0 0 26 26">
    <defs>
        <clipPath id="clip-path">
            <rect id="사각형_281" data-name="사각형 281" width="26" height="26" fill="none"></rect>
        </clipPath>
    </defs>
    <g id="그룹_1105" data-name="그룹 1105" clip-path="url(#clip-path)">
        <path id="패스_140" data-name="패스 140" d="M12.25,22A9.75,9.75,0,1,1,22,12.25,9.761,9.761,0,0,1,12.25,22m0-17.875a8.125,8.125,0,1,0,8.125,8.125A8.134,8.134,0,0,0,12.25,4.125" transform="translate(0.208 0.208)"></path>
        <path id="패스_141" data-name="패스 141" d="M21.062,21.875a.806.806,0,0,1-.574-.238l-3.25-3.25a.812.812,0,0,1,1.148-1.148l3.25,3.25a.813.813,0,0,1-.574,1.387" transform="translate(1.417 1.417)"></path>
    </g>
</svg>