<svg id="그룹_1114" data-name="그룹 1114" xmlns="http://www.w3.org/2000/svg" xmlns:xlink="http://www.w3.org/1999/xlink" width="26" height="26" viewBox="0 0 26 26">
    <defs>
        <clipPath id="clip-path">
            <rect id="사각형_285" data-name="사각형 285" width="26" height="26" fill="none"></rect>
        </clipPath>
    </defs>
    <g id="그룹_1113" data-name="그룹 1113" clip-path="url(#clip-path)">
        <path id="패스_149" data-name="패스 149" d="M12.833,22.225a.873.873,0,0,1-.621-.258L3.765,13.518A6.023,6.023,0,0,1,12.284,5l.549.55L13.386,5a5.984,5.984,0,0,1,4.259-1.764h0A6.023,6.023,0,0,1,21.9,13.52l-8.448,8.447a.871.871,0,0,1-.621.258M8.023,4.994a4.266,4.266,0,0,0-3.018,7.281L12.833,20.1l7.827-7.826a4.266,4.266,0,1,0-6.033-6.033L13.454,7.415a.879.879,0,0,1-1.241,0l-1.17-1.17a4.248,4.248,0,0,0-3.019-1.25" transform="translate(0.167 0.27)"></path>
    </g>
</svg>